<svg xmlns="http://www.w3.org/2000/svg" viewBox="0 0 240 160"><title>accenture</title><path d="M135.24023,56.12458l10.58642-3.934-10.58642-4.13994V42.57142l18.14259,7.30733v4.51056l-18.14258,7.35113V56.12458ZM34.98051,91.078C31.16914,91.078,28,89.12845,28,84.83211v-.24883c0-5.23078,4.511-6.945,10.02348-6.945h2.6408V76.6232c0-2.10983-.93751-3.382-3.12533-3.382a2.90563,2.90563,0,0,0-3.188,2.59655c-.00658.0552-.01052.11172-.01315.16648h-5.6382c.4083-4.713,4.13994-7.02476,9.1692-7.02476,5.02838,0,8.77054,2.18606,8.77054,7.46285V90.64819h-5.806V88.21372A6.76949,6.76949,0,0,1,34.98051,91.078Zm5.6382-7.51016V81.53813H38.26179c-2.92073,0-4.42031.81265-4.42031,2.71878v.20152c0,1.46628.89063,2.48089,2.887,2.48089,1.99462,0,3.9358-1.17276,3.9358-3.42585l-.046.05476ZM59.97962,91.078c-5.88792,0-10.15052-3.65191-10.15052-10.83657V79.961c0-7.1829,4.511-10.99471,10.15052-10.99471,4.82424,0,8.80471,2.43665,9.2888,7.9938H63.63153c-.36055-2.06164-1.41941-3.382-3.496-3.382-2.51463,0-4.26261,1.98366-4.26261,6.16829v.65451c0,4.30641,1.54645,6.24627,4.3086,6.24627,2.02967,0,3.52925-1.49914,3.85519-3.81138H69.4384c-.36186,4.7927-3.65367,8.24221-9.41453,8.24221h-.04425Zm22.0753,0C76.1692,91.078,71.907,87.426,71.907,80.24138V79.961c0-7.1829,4.51057-10.99471,10.14789-10.99471,4.82468,0,8.80471,2.43665,9.291,7.9938H85.70859c-.3623-2.06164-1.4216-3.382-3.496-3.382-2.51463,0-4.2626,1.98366-4.2626,6.16829v.65451c0,4.30641,1.54645,6.24627,4.30861,6.24627,2.02747,0,3.52661-1.49914,3.85343-3.81138h5.40164c-.36055,4.7927-3.6414,8.24221-9.41541,8.24221h-.04339Zm22.24616,0c-6.13325,0-10.30561-3.65191-10.30561-10.71039V79.961c0-7.10318,4.42032-10.99472,10.14833-10.99472,5.27722,0,9.69491,2.965,9.69491,9.97967V81.5044H100.04987c.24839,3.81137,1.87151,5.27722,4.42031,5.27722a3.66314,3.66314,0,0,0,3.90163-2.763H113.851c-.61946,4.00326-3.94631,7.05849-9.50566,7.05849h-.04381Zm-4.21792-13.53037h7.96007c-.12266-3.12358-1.54338-4.50793-3.89987-4.50793-1.82815.05432-3.52924,1.06893-4.01377,4.51844l-.04644-.01051Zm17.37767-8.152h5.91727V72.563a6.91282,6.91282,0,0,1,6.41669-3.60722c3.85518,0,6.41625,2.3096,6.41625,7.465V90.62717h-5.93173V77.30927c0-2.48046-1.01549-3.57306-3.16957-3.57306a3.55214,3.55214,0,0,0-3.74654,3.347,3.68722,3.68722,0,0,0,.01446.58923V90.6149h-5.91814V69.39561Zm29.83167-6.4145v6.4145h4.06021v4.41813H147.2925V83.88366c0,1.57975.73293,2.31311,2.10984,2.31311a5.11978,5.11978,0,0,0,2.0634-.36274v4.62491a12.27868,12.27868,0,0,1-3.38205.44992c-4.62447,0-6.76584-2.10984-6.76584-6.41669V73.81375h-2.48046V69.39561h2.5821V65.47209l5.873-2.491Zm26.38611,27.63334h-5.93173V87.49351a6.47735,6.47735,0,0,1-6.16829,3.57394c-3.81138,0-6.6169-2.31224-6.6169-7.30733V69.39561H160.925V82.926c0,2.43577.96817,3.57349,3.08985,3.57349a3.574,3.574,0,0,0,3.74565-3.39257,3.53833,3.53833,0,0,0-.01445-.541V69.39561h5.93173V90.61445Zm4.3064-21.23111h5.91946V73.285a6.33616,6.33616,0,0,1,6.36982-4.18375v5.841c-4.0129,0-6.36982,1.21788-6.36982,4.74713v10.915H177.985v-21.221Zm24.47823,21.67358c-6.13456,0-10.3056-3.65629-10.3056-10.71259V79.9378c0-7.10318,4.41944-10.993,10.14745-10.993,5.27721,0,9.69491,2.96586,9.69491,9.97791v2.56063H198.19056c.248,3.81225,1.86976,5.2781,4.41812,5.2781a3.66706,3.66706,0,0,0,3.90207-2.763h5.4818c-.66589,4.02516-3.93841,7.0804-9.49557,7.0804l-.03373-.02059Zm-4.21792-13.53257h7.96008c-.12179-3.12357-1.54339-4.511-3.89987-4.511-1.83559.08061-3.53975,1.09522-4.026,4.54473Z" fill="#505666"/></svg>