<svg xmlns="http://www.w3.org/2000/svg" viewBox="0 0 240 160"><title>etoro</title><path d="M197.7,64.95c-.9-3.4-7.9-11.2-13-17.5a1.31583,1.31583,0,0,0-1-.6c-.5,0-.9.5-.7.9s5.1,10.6,4.2,13.9c-.9,3.4-5.4,2.7-6.1,2.7-.4,0-.1.3.3.7a11.96778,11.96778,0,0,1,4.1,9.3v3c0,.1,0,.1.1.1,5.7-.5,14.4-4,12.1-12.5" fill="#505666"/><path d="M175.6,84.65c0,2.9-3.9,4.5-6.4,4.5-2.7,0-6.5-1.6-6.5-4.5V74.45c0-2.9,3.8-4.2,6.5-4.2,2.5,0,6.4,1.4,6.4,4.2Zm-6.4-20.8c-6,.1-13,3.5-13,10.5v10.7c0,7.1,7,10.5,13,10.5,5.9-.1,12.9-3.4,12.9-10.5V74.45c0-7-7-10.5-12.9-10.6" fill="#505666"/><path d="M130.4,84.65c0,2.9-3.9,4.5-6.4,4.5-2.7,0-6.5-1.6-6.5-4.5V74.45c0-2.9,3.8-4.2,6.5-4.2,2.5,0,6.4,1.4,6.4,4.2Zm-6.5-20.8c-6,.1-13,3.5-13,10.5v10.7c0,7.1,7,10.5,13,10.5,5.9-.1,12.9-3.4,12.9-10.5V74.45c0-7-7-10.5-12.9-10.6" fill="#505666"/><path d="M58.7,65.05c.4-.4.7-.7.3-.7-.7,0-5.2.7-6.1-2.7s4-13.5,4.2-13.9a.75658.75658,0,0,0-.8-.9c-.5,0-.9.6-1,.6-5,6.3-12.1,14.1-13,17.5-2.3,8.5,6.6,12,12.2,12.6a.09794.09794,0,0,0,.1-.1v-3a12.36525,12.36525,0,0,1,4.1-9.4" fill="#505666"/><path d="M110.5,66.25A46.33606,46.33606,0,0,0,97,64.45a46.797,46.797,0,0,0-13.5,1.8c-.2.1-.3.3-.2.4a8.14091,8.14091,0,0,1,2.6,5.2,48.83146,48.83146,0,0,1,7.8-1.2v24.7c0,.1.1.1.2.1h6.2c.1,0,.2,0,.2-.1V70.65a37.83684,37.83684,0,0,1,7.5,1.2,8.28089,8.28089,0,0,1,2.9-5.2c0-.2-.1-.4-.2-.4" fill="#505666"/><path d="M156.4,64.15a11.93463,11.93463,0,0,0-3-.2c-5.9.2-12.6,3.7-12.6,10.5v21.1c0,.1.1.1.2.1h6.2c.1,0,.2,0,.2-.1v-.6h0V74.45c0-2.3,2.8-3.6,5.1-4.1a11.23186,11.23186,0,0,1,4-5.5c.3-.3.2-.7-.1-.7" fill="#505666"/><path d="M76.6,76.25c0,.1,0,.1-.1.2,0,.1-.1.1-.2.1H64.5v-2.1c0-2.9,3.5-4.3,6.2-4.3,2.6,0,5.9,1.4,5.9,4.3Zm-5.9-12.6c-6.1.1-12.8,3.6-12.8,10.7v10.8c0,7.2,6.7,10.6,12.8,10.7,4.4,0,9.3-1.8,11.7-5.7.1-.1,0-.3-.1-.4-2.1-1.2-3.3-1.9-5.4-3-.1,0-.1,0-.2.1-1.1,1.9-4,2.9-6,2.9-2.7,0-6.2-1.7-6.2-4.6v-3.2H81.4a1.57953,1.57953,0,0,0,1.6-1.6v-5.9c0-7.2-6.3-10.7-12.3-10.8" fill="#505666"/></svg>