<svg xmlns="http://www.w3.org/2000/svg" viewBox="0 0 240 160"><title>google</title><rect x="167.45679" y="55.28394" width="5.72845" height="38.32102"  fill="#A7AAB2"/><path d="M94.51858,68.321A13.03716,13.03716,0,1,0,107.605,81.35806,12.85045,12.85045,0,0,0,94.51858,68.321Zm0,20.9383c-3.95066,0-7.35814-3.2593-7.35814-7.90124,0-4.69137,3.40748-7.90123,7.35814-7.90123,3.9505,0,7.358,3.20986,7.358,7.90123C101.87656,86,98.46908,89.2593,94.51858,89.2593Z"  fill="#A7AAB2"/><path d="M60.54314,72.321v5.53082H73.77782a11.54228,11.54228,0,0,1-3.0124,6.963,13.54845,13.54845,0,0,1-10.22228,4.04939,14.71738,14.71738,0,0,1,0-29.43208,14.10449,14.10449,0,0,1,9.97529,3.95058l3.9013-3.90121a19.2929,19.2929,0,0,0-13.87659-5.58028,20.24909,20.24909,0,1,0,0,40.4939c6.0248,0,10.568-1.97533,14.12358-5.67909,3.6543-3.6543,4.79-8.79013,4.79-12.93825a18.04676,18.04676,0,0,0-.29619-3.45676Z"  fill="#A7AAB2"/><path d="M188.889,89.2593a6.6315,6.6315,0,0,1-6.321-3.95066L200,78.09876l-.59254-1.48144c-1.08636-2.91359-4.39511-8.29632-11.16055-8.29632-6.71607,0-12.29626,5.28392-12.29626,13.03706A12.75783,12.75783,0,0,0,188.889,94.39513a12.96836,12.96836,0,0,0,10.8642-5.77782l-4.44448-2.963A7.446,7.446,0,0,1,188.889,89.2593ZM188.44454,73.358a5.04843,5.04843,0,0,1,4.83939,2.76549L181.62957,80.963A7.15082,7.15082,0,0,1,188.44454,73.358Z"  fill="#A7AAB2"/><path d="M158.074,71.23459h-.19746a9.0338,9.0338,0,0,0-6.86417-2.91359c-6.51861,0-12.49389,5.72837-12.49389,13.08643a12.91,12.91,0,0,0,12.49389,12.9877,8.88786,8.88786,0,0,0,6.86417-2.963h.19746v1.8766c0,4.98765-2.66669,7.65433-6.9629,7.65433a7.21388,7.21388,0,0,1-6.568-4.642l-4.98765,2.07406a12.42429,12.42429,0,0,0,11.55563,7.7037c6.71607,0,12.395-3.95058,12.395-13.58024V69.11117H158.074ZM151.50622,89.2593c-3.95066,0-7.25925-3.30867-7.25925-7.85187,0-4.59257,3.30859-7.9506,7.25925-7.9506,3.90113,0,6.9629,3.358,6.9629,7.9506C158.46912,85.95063,155.40735,89.2593,151.50622,89.2593Z"  fill="#A7AAB2"/><path d="M123.06177,68.321a13.03716,13.03716,0,1,0,13.08642,13.03706A12.85045,12.85045,0,0,0,123.06177,68.321Zm0,20.9383c-3.95066,0-7.358-3.2593-7.358-7.90124,0-4.69137,3.40732-7.90123,7.358-7.90123s7.358,3.20986,7.358,7.90123C130.41974,86,127.01242,89.2593,123.06177,89.2593Z"  fill="#A7AAB2"/></svg>