<svg xmlns="http://www.w3.org/2000/svg" viewBox="0 0 240 160"><title>ibm</title><polygon points="179.444 59.415 159.654 59.415 160.874 56.002 179.444 56.002 179.444 59.415" fill="#505666"/><path d="M126.68836,56.00178,145.06218,56l1.2039,3.42027c.00874-.005-19.57152.0043-19.57152,0C126.69456,59.41532,126.68277,56.00178,126.68836,56.00178Z" fill="#505666"/><path d="M112.09586,56.00178a13.21123,13.21123,0,0,1,7.90352,3.41785H86.69429V56.00051Z" fill="#505666"/><rect x="60.55887" y="56.00178" width="23.13674" height="3.41177" fill="#505666"/><path d="M179.4442,65.81638h-22.058s1.20274-3.39376,1.19653-3.395H179.4442Z" fill="#505666"/><polygon points="148.539 65.821 126.687 65.821 126.687 62.42 147.342 62.42 148.539 65.821" fill="#505666"/><path d="M122.593,62.41958a8.81591,8.81591,0,0,1,.95871,3.39554H86.7005V62.41958Z" fill="#505666"/><rect x="60.55887" y="62.41958" width="23.13674" height="3.39554" fill="#505666"/><polygon points="155.131 72.234 156.342 68.823 172.903 68.828 172.903 72.227 155.131 72.234" fill="#505666"/><polygon points="149.602 68.822 150.808 72.234 133.203 72.234 133.203 68.822 149.602 68.822" fill="#505666"/><path d="M123.84326,68.82115a11.1335,11.1335,0,0,1-.48729,3.413H113.26639v-3.413Z" fill="#505666"/><rect x="67.00749" y="68.83789" width="9.94461" height="3.39566" fill="#505666"/><rect x="93.39506" y="68.82115" width="9.92735" height="3.4124" fill="#505666"/><path d="M142.98138,75.91827s.00368,2.58254.00127,2.58811h-9.78V75.1101h18.63714l1.15683,3.16584c.00495.0019,1.116-3.1732,1.1184-3.16584h18.782v3.39628h-9.73153c0-.00557-.00621-2.58748-.00621-2.58748L162.26,78.50638l-18.37942-.00557Z" fill="#505666"/><path d="M93.39506,75.1101h28.498v-.00241a12.80206,12.80206,0,0,1-2.82644,3.39869s-25.67286.00432-25.67286,0Z" fill="#505666"/><rect x="67.00749" y="75.10895" width="9.94461" height="3.39616" fill="#505666"/><rect x="163.16549" y="81.51243" width="9.73153" height="3.3949" fill="#505666"/><path d="M142.98138,81.51243h-9.77871v3.3949c-.005-.00114,9.78239.00253,9.78239,0C142.98506,84.90619,142.995,81.51243,142.98138,81.51243Z" fill="#505666"/><path d="M161.19985,81.51243c-.04464-.00622-1.13957,3.39376-1.18536,3.3949l-13.86232.00621c-.01116-.00494-1.21872-3.40733-1.22-3.40111Z" fill="#505666"/><path d="M93.39265,81.51116h25.62454a16.76254,16.76254,0,0,1,3.055,3.39617c.04706-.00114-28.67838.00253-28.67838,0Z" fill="#505666"/><path d="M76.951,84.90733V81.51116H67.0236v3.395Z" fill="#505666"/><rect x="163.16549" y="87.91463" width="9.73027" height="3.3963" fill="#505666"/><rect x="133.20267" y="87.91463" width="9.77872" height="3.39503" fill="#505666"/><path d="M157.738,91.327c.0024-.01611,1.20019-3.4161,1.21871-3.41241H147.17279c-.02106-.00242,1.20757,3.3963,1.20757,3.3963S157.73546,91.34061,157.738,91.327Z" fill="#505666"/><path d="M93.3938,91.30966c0,.01357-.00115-3.395,0-3.39618h10.07536s.00863,3.39745,0,3.39745Z" fill="#505666"/><path d="M123.486,87.91348a9.84073,9.84073,0,0,1,.63352,3.41229H113.44472V87.91348Z" fill="#505666"/><rect x="67.0236" y="87.91348" width="9.92736" height="3.39491" fill="#505666"/><rect x="163.16549" y="94.18442" width="16.27744" height="3.39743" fill="#505666"/><rect x="126.68709" y="94.18442" width="16.2943" height="3.39743" fill="#505666"/><polygon points="155.548 97.582 150.578 97.582 149.385 94.184 156.697 94.184 155.548 97.582" fill="#505666"/><path d="M60.5576,94.18442v3.39616H83.67836c.00989.005-.01053-3.39375,0-3.39375Z" fill="#505666"/><path d="M123.69652,94.18442a7.29878,7.29878,0,0,1-1.28506,3.39743l-.30529-.00127H86.69924V94.18442Z" fill="#505666"/><polygon points="153.295 103.992 152.838 103.992 151.676 100.588 154.488 100.588 153.295 103.992" fill="#505666"/><rect x="163.16549" y="100.5879" width="16.27744" height="3.41114" fill="#505666"/><path d="M86.69429,103.99155v-3.39872s33.40414.00381,33.50015.00381a12.67732,12.67732,0,0,1-8.63355,3.40239l-24.86165-.00748" fill="#505666"/><rect x="126.68709" y="100.5879" width="16.2943" height="3.41114" fill="#505666"/><path d="M83.67836,100.60274s-.01053,3.38881,0,3.38881c.00989,0-23.11455.0137-23.12076.00621-.00622-.00621.00621-3.40493,0-3.40493S83.66783,100.61276,83.67836,100.60274Z" fill="#505666"/></svg>