<svg xmlns="http://www.w3.org/2000/svg" viewBox="0 0 240 160"><title>mckinsey-company</title><path d="M15.92731,89.5272v-.56466c1.42981-.16511,1.96342-.76477,1.86238-2.69517L17.225,73.80065,11.2423,89.39511h-.76674L4.35744,73.80065l-.533,11.7046c-.09972,2.46072.42927,3.12444,2.29364,3.45729v.56466H0v-.56466c1.7303-.19879,2.42638-1.13064,2.56044-3.625l.59768-11.63921c.1017-2.19457-1.35914-2.46072-2.36033-2.65885V70.4728H5.819l5.75356,14.763L17.19,70.57451h4.75831v.599c-1.49849.13076-2.22825.86449-2.16485,2.59148l.56466,11.939c.1017,2.293.76476,3.0934,2.462,3.25851v.56466H15.92731" fill="#505666"/><path d="M29.1938,89.85939c-4.09,0-5.65187-2.85962-5.65187-5.65186,0-3.526,2.65753-6.71976,6.21652-6.71976a5.71714,5.71714,0,0,1,3.559,1.03553,4.28532,4.28532,0,0,1-.76675,2.09155l-.22983.035a4.29424,4.29424,0,0,0-3.46125-1.727,2.98248,2.98248,0,0,0-2.15957.75948,4.09875,4.09875,0,0,0-.92854,2.962c0,2.927,1.22969,5.71856,4.5199,5.71856a6.79831,6.79831,0,0,0,3.491-.99525l.26681.566a7.00083,7.00083,0,0,1-4.85539,1.92578" fill="#505666"/><path d="M47.74428,89.5272c-2.62714-2.96-5.05352-6.01972-7.31545-8.81065l-.89817.99525v1.0646c0,5.7179,0,5.887,2.16419,6.18614v.56466H34.87471v-.56466c1.96343-.16511,2.16353-.49994,2.16353-5.81961v-6.585c0-4.92144-.09972-5.35137-2.16353-5.51846V70.4728h6.82014v.56664c-1.9304.26483-2.16419.566-2.16419,5.4544v3.588l5.0205-5.55213c1.23234-1.32877,1.3314-2.02749,1.3314-2.42638,0-.59966-.33482-.89685-1.16431-1.06394V70.4728h6.38294v.56664c-1.86172.068-2.92433,1.16564-4.92143,3.36021l-4.088,4.52321c1.26339,1.62991,3.42493,4.22007,4.71869,5.75092,3.36087,3.88788,4.42877,4.18705,5.48874,4.28876v.56466H47.74428" fill="#505666"/><path d="M55.38929,74.298a1.53063,1.53063,0,0,1,0-3.06038,1.53019,1.53019,0,1,1,0,3.06038M52.23381,89.5272v-.56466c2.09353-.09907,2.12654-.09907,2.12654-4.32376v-2.927c0-3.32322-.23378-3.4236-2.16154-3.49031v-.56664h4.45452v7.01893c0,4.18969.06538,4.15469,1.92776,4.28876v.56466Z" fill="#505666"/><path d="M68.02441,89.5272v-.56466c1.69728-.10171,1.8287-.13407,1.8287-4.09261V82.47855c0-2.86291-1.163-3.49229-2.62516-3.49229-1.79568,0-3.29549,1.36112-3.29549,2.462v3.22548c0,4.18705.07,4.15469,1.93173,4.28876v.56466H59.51294v-.56466c2.0922-.10171,2.12919-.10171,2.12919-4.32376v-2.927c0-3.3252-.23577-3.4236-2.16287-3.49031v-.56664h4.4532V79.786a5.57406,5.57406,0,0,1,4.36074-2.29826c1.89276,0,3.85685,1.13262,3.85685,4.72463v2.65753c0,3.95854,0,3.9909,2.09286,4.09261v.56466h-6.2185" fill="#505666"/><path d="M79.49258,89.827c-1.56321,0-3.458-.39758-3.92289-1.16366a10.59321,10.59321,0,0,1-.29917-2.72819h.69608a3.48516,3.48516,0,0,0,3.59268,3.02868c1.72567,0,2.76055-.66768,2.76055-1.762,0-3.26246-6.81816-2.46072-6.81816-6.45427,0-1.82671,1.43046-3.3569,3.89185-3.3569a9.72985,9.72985,0,0,1,3.491.59966,8.06168,8.06168,0,0,1,.33286,2.95735H82.6824a3.77162,3.77162,0,0,0-3.42163-2.75857c-1.09894,0-1.99645.496-1.99645,1.49453,0,2.82989,6.78118,2.16155,6.78118,6.552,0,1.96276-1.72567,3.59136-4.55292,3.59136" fill="#505666"/><path d="M94.455,81.81483H88.33756c.19879-2.19787,1.196-3.42691,3.09141-3.42691,1.86239,0,2.991,1.229,3.026,3.42691m2.16221,6.11481-.26614-.564a6.78858,6.78858,0,0,1-3.49361.99855c-3.29021,0-4.654-2.95934-4.55359-5.65252h8.31334c.13474-2.72885-1.29772-5.321-4.72265-5.321-3.456,0-5.78526,2.76121-5.78526,6.58371,0,2.99169,1.52953,5.88631,5.6545,5.88631a6.98541,6.98541,0,0,0,4.85341-1.93107" fill="#505666"/><path d="M107.8516,80.55079,105.488,87.26526c-1.56123,4.42348-2.42506,7.3498-6.85251,9.1468a5.91887,5.91887,0,0,1-1.13129-1.86238c3.36087-.76675,5.02645-2.22825,6.08971-4.95512L100.50114,82.711c-1.82935-4.05761-1.96276-4.25772-3.32718-4.32442v-.56268h5.55148v.56268c-.86185.10038-1.12866.36785-1.12866.83345a7.71156,7.71156,0,0,0,.83146,2.49374l2.22958,5.22126,2.29165-6.75079c.39955-1.16432-.1651-1.731-1.196-1.79766v-.56268h4.29075v.56268c-.83147,0-1.66361.63334-2.1926,2.16419" fill="#505666"/><path d="M123.74325,87.16686a7.13962,7.13962,0,0,1-4.053.99855c-3.4956,0-6.25482-2.46138-6.25482-5.7562,0-2.06183.89685-3.35493,2.25929-3.72212a29.76671,29.76671,0,0,0,8.04852,8.47977m7.71765,2.36034v-.56664c-1.33339-.13209-3.32983-1.231-5.457-2.79225a12.40838,12.40838,0,0,0,1.13063-4.45651c.16709-1.161,1.02959-1.12865,1.59557-1.196v-.529h-5.38571v.529c1.26668.16576,2.49638.33285,2.49638,2.29561a5.15728,5.15728,0,0,1-.63665,2.75989c-4.71868-3.69174-9.07481-8.81328-9.07481-11.37373,0-1.26272.76477-1.86238,1.9938-1.86238a4.03112,4.03112,0,0,1,3.69175,3.028h.5323l-.068-3.592h-.533a.48409.48409,0,0,1-.39691.39889c-.66305,0-1.59359-.73174-3.22615-.73174a3.465,3.465,0,0,0-3.65739,3.58739,6.16557,6.16557,0,0,0,.80043,2.79687,5.32265,5.32265,0,0,0-3.75845,5.32033c0,4.42216,3.35889,6.81618,7.14838,6.81618a8.7437,8.7437,0,0,0,5.955-2.19259,18.28427,18.28427,0,0,0,2.75725,1.76068Z" fill="#505666"/><path d="M140.897,89.99345c-5.51384,0-9.00877-3.65806-9.00877-9.47832,0-6.08312,3.79411-10.50792,9.47436-10.50792,2.82857,0,3.89383.79845,5.0238.79845a1.04925,1.04925,0,0,0,1.03157-.59768h.533l.19878,5.68554H147.583c-.93185-3.2902-2.82857-4.9538-6.11746-4.9538-4.25771,0-6.84787,2.99236-6.84787,8.34571,0,5.55214,2.65686,9.27623,7.1127,9.27623a7.79305,7.79305,0,0,0,6.0534-2.62516l.531.59768c-1.03289,1.69661-3.82514,3.45927-7.41781,3.45927" fill="#505666"/><path d="M160.01409,84.37263c0,2.76121-1.23036,4.45782-3.72477,4.45782-2.16286,0-4.1877-1.9971-4.1877-6.019,0-2.86291,1.36046-4.4248,3.65674-4.4248,2.12852,0,4.25573,2.06315,4.25573,5.986m2.35835-.76476a5.9955,5.9955,0,0,0-2.62583-5.286,6.78828,6.78828,0,0,0-3.65541-.93119,6.11874,6.11874,0,0,0-6.35388,6.21718,6.02543,6.02543,0,0,0,2.62714,5.31967,6.88857,6.88857,0,0,0,3.69108.90081,6.07235,6.07235,0,0,0,6.3169-6.22048" fill="#505666"/><path d="M179.962,89.5272v-.56466c1.72963-.13407,1.76133-.29917,1.76133-3.89119v-2.7262c0-2.462-.96157-3.35889-2.46073-3.35889-1.76264,0-3.28953,1.32876-3.28953,2.52742v3.35625c0,3.75976-.03566,3.9275,1.92577,4.09261v.56466h-5.91735v-.56466c1.661-.10171,1.76333-.29917,1.76333-4.22206V82.34515c0-2.36034-.76742-3.35889-2.56243-3.35889-1.66227,0-3.2235,1.32876-3.2235,2.55846v3.46059c0,3.79212.16576,3.79212,1.92709,3.95723v.56466H163.6028v-.56466c1.99644-.035,2.0605-.035,2.0605-3.85685V81.7118c0-3.3252-.23114-3.4236-2.1622-3.49031v-.56664h4.45782V79.786a5.47076,5.47076,0,0,1,4.15536-2.29826,3.39978,3.39978,0,0,1,3.62436,2.59412,5.58726,5.58726,0,0,1,4.52123-2.59412c2.09749,0,3.89316,1.2297,3.89316,4.52452v3.0934c0,3.456-.101,3.75514,2.05788,3.85685v.56466H179.962" fill="#505666"/><path d="M197.77879,83.84033c0,3.09274-1.29641,5.08721-3.72541,5.08721-1.55993,0-3.29022-.89487-3.29022-2.06117V80.982c0-.99657,1.42981-1.99578,3.02868-1.99578,2.45675,0,3.98695,1.83068,3.98695,4.85407m2.39469-.29917c0-3.45729-2.23025-6.05339-5.31769-6.05339a5.30916,5.30916,0,0,0-4.09263,1.92974V77.65485H186.409v.56664c1.82871.06671,2.05984.16511,2.05984,4.05893V90.389c0,4.226.10171,4.55887-1.96276,4.65859v.566H192.856v-.566c-2.26-.0667-2.09287-.43257-2.09287-4.85341V88.56166a5.08825,5.08825,0,0,0,3.55769,1.26669c3.58937,0,5.85263-2.69451,5.85263-6.28719" fill="#505666"/><path d="M208.51851,86.70325c0,.99459-1.32875,1.82473-2.394,1.82473a1.77576,1.77576,0,0,1-1.82936-1.9938c0-2.42638,2.52809-2.16155,4.22337-3.0934v3.26247m4.9188,2.82593v-.56862h-.69674c-1.661,0-1.85974-.564-1.85974-2.927V82.04664a7.49817,7.49817,0,0,0-.23246-2.02947c-.56533-1.86238-2.09551-2.5294-4.19036-2.5294a7.19516,7.19516,0,0,0-4.22339,1.3664,4.81805,4.81805,0,0,0,.89818,1.99645l.29917-.0667a3.07543,3.07543,0,0,1,2.859-2.23024,2.13787,2.13787,0,0,1,2.22758,2.39336v1.36641c0,.89883-3.98893,1.06261-5.61817,2.42571a2.57665,2.57665,0,0,0-.96686,1.99579,2.99785,2.99785,0,0,0,3.25916,3.09141,4.23409,4.23409,0,0,0,3.39125-1.63057c.16775.86383.89949,1.33339,2.06448,1.33339Z" fill="#505666"/><path d="M221.75066,89.5272v-.56466c1.69462-.10171,1.82738-.13407,1.82738-4.09261V82.47855c0-2.86291-1.16631-3.49229-2.62781-3.49229-1.7937,0-3.28955,1.36112-3.28955,2.462v3.22548c0,4.18705.06407,4.15469,1.92645,4.28876v.56466h-6.35191v-.56466c2.09353-.10171,2.13052-.10171,2.13052-4.32376v-2.927c0-3.3252-.23313-3.4236-2.16156-3.49031v-.56664h4.4565V79.786a5.56433,5.56433,0,0,1,4.35151-2.29826c1.89737,0,3.85486,1.13262,3.85486,4.72463v2.65753c0,3.95854,0,3.9909,2.09815,4.09261v.56466h-6.21454" fill="#505666"/><path d="M237.80344,80.55079l-2.361,6.71447c-1.56255,4.42348-2.42572,7.3498-6.85317,9.1468a5.78428,5.78428,0,0,1-1.12864-1.86238c3.35888-.76675,5.02247-2.22825,6.08641-4.95512L230.45628,82.711c-1.83066-4.05761-1.96473-4.25772-3.32785-4.32442v-.56268h5.55348v.56268c-.86515.10038-1.12867.36785-1.12867.83345a7.731,7.731,0,0,0,.82883,2.49374l2.22958,5.22126,2.29429-6.75079c.39954-1.16432-.1671-1.731-1.19668-1.79766v-.56268H240v.56268c-.83544,0-1.66558.63334-2.19656,2.16419" fill="#505666"/></svg>