<svg xmlns="http://www.w3.org/2000/svg" viewBox="0 0 240 160"><title>microsoft</title><path d="M220,77.951V74.45277h-4.34783V69.0055l-.14992.05-4.098,1.24937h-.1v4.14793h-6.49676V72.15393a3.76509,3.76509,0,0,1,.69965-2.44878,2.46144,2.46144,0,0,1,1.999-.7996,4.57352,4.57352,0,0,1,1.89905.44977l.14992.05V65.70715l-.1-.05a7.93331,7.93331,0,0,0-2.44877-.29986,7.19072,7.19072,0,0,0-3.44828.84958,5.90155,5.90155,0,0,0-2.34883,2.34882,7.04914,7.04914,0,0,0-.84958,3.44827v2.54873H197.3113V78.051h3.04848V92.89355h4.34783V78.051h6.49675v9.39531c0,3.898,1.84909,5.84707,5.44728,5.84707a8.04632,8.04632,0,0,0,1.84908-.1999,5.14609,5.14609,0,0,0,1.34933-.44977l.05-.05V89.04547l-.1999.1a3.74936,3.74936,0,0,1-.89954.3998,3.37144,3.37144,0,0,1-.84958.14993,2.33561,2.33561,0,0,1-1.84909-.69965,3.586,3.586,0,0,1-.5997-2.34882V78.001L220,77.951ZM187.66616,89.64518A4.63734,4.63734,0,0,1,183.968,88.096a6.51989,6.51989,0,0,1-1.34933-4.3978,6.95108,6.95108,0,0,1,1.34933-4.54773,5.07161,5.07161,0,0,1,7.29636-.09995,6.80118,6.80118,0,0,1,1.29935,4.49775,7.0463,7.0463,0,0,1-1.24937,4.54773,4.38491,4.38491,0,0,1-3.64819,1.54923m.1999-15.64218a9.61835,9.61835,0,0,0-7.14642,2.64868,9.91523,9.91523,0,0,0-2.59871,7.1964,9.37176,9.37176,0,0,0,2.49875,6.84657,9.0422,9.0422,0,0,0,6.74663,2.54873,9.3416,9.3416,0,0,0,6.9965-2.64868,9.8322,9.8322,0,0,0,2.59871-7.09645,9.57363,9.57363,0,0,0-2.3988-6.89655,8.6258,8.6258,0,0,0-6.69666-2.5987m-16.74163,0a8.09867,8.09867,0,0,0-5.04748,1.54923,4.97043,4.97043,0,0,0-1.949,4.048,5.15686,5.15686,0,0,0,.44977,2.24887,4.69151,4.69151,0,0,0,1.29935,1.69915,10.337,10.337,0,0,0,2.64867,1.49925,13.15709,13.15709,0,0,1,2.1989,1.04948,2.646,2.646,0,0,1,.94952.7996A1.64031,1.64031,0,0,1,171.924,87.946c0,1.24938-.89955,1.84907-2.79861,1.84907a7.7023,7.7023,0,0,1-2.39879-.44977,8.71934,8.71934,0,0,1-2.44877-1.24937l-.1999-.14993v4.1979l.05.05a8.3369,8.3369,0,0,0,2.29885.69964,11.63126,11.63126,0,0,0,2.44877.29986,8.61024,8.61024,0,0,0,5.34734-1.54923,5.13756,5.13756,0,0,0,1.999-4.14793,4.78886,4.78886,0,0,0-1.04948-3.14843,8.81946,8.81946,0,0,0-3.64817-2.29885,9.5184,9.5184,0,0,1-2.59871-1.34932,1.8516,1.8516,0,0,1-.49975-1.39931,1.52275,1.52275,0,0,1,.64967-1.29935,2.90621,2.90621,0,0,1,1.84908-.49975,6.74177,6.74177,0,0,1,2.1989.34982,8.81317,8.81317,0,0,1,1.949.89956l.1999.09995v-3.998l-.05-.05a10.47084,10.47084,0,0,0-1.949-.54973,12.35281,12.35281,0,0,0-2.14892-.24987M152.68365,89.64518a4.63732,4.63732,0,0,1-3.69814-1.54923,6.51984,6.51984,0,0,1-1.34934-4.3978,6.95108,6.95108,0,0,1,1.34934-4.54773,5.0716,5.0716,0,0,1,7.29635-.09995,6.80118,6.80118,0,0,1,1.29935,4.49775,7.0463,7.0463,0,0,1-1.24937,4.54773,4.32158,4.32158,0,0,1-3.64819,1.54923m.1999-15.64218a9.54084,9.54084,0,0,0-7.14642,2.64868,9.91523,9.91523,0,0,0-2.59871,7.1964,9.37176,9.37176,0,0,0,2.49875,6.84657,9.04222,9.04222,0,0,0,6.74663,2.54873,9.3416,9.3416,0,0,0,6.9965-2.64868,9.8322,9.8322,0,0,0,2.59871-7.09645,9.57363,9.57363,0,0,0-2.3988-6.89655,8.6258,8.6258,0,0,0-6.69666-2.5987m-16.34182,3.5982V74.4028h-4.29785V92.74363h4.29785v-9.3953a6.32121,6.32121,0,0,1,1.09946-3.89806,3.23,3.23,0,0,1,2.7986-1.44927,4.33658,4.33658,0,0,1,1.29935.1999,4.07137,4.07137,0,0,1,.9995.3998l.1999.14993V74.4028l-.05-.05a4.87494,4.87494,0,0,0-1.69914-.24987,4.403,4.403,0,0,0-2.89855,1.04948,6.41706,6.41706,0,0,0-1.74914,2.44877Zm-12.044-3.5982a10.45387,10.45387,0,0,0-5.24738,1.24938,8.72777,8.72777,0,0,0-3.44827,3.54822,11.12933,11.12933,0,0,0-1.1994,5.24738,10.09971,10.09971,0,0,0,1.14943,4.74763,7.82865,7.82865,0,0,0,3.24838,3.24837,9.61571,9.61571,0,0,0,4.69764,1.14943,10.38375,10.38375,0,0,0,5.19741-1.1994l.05-.05V87.996l-.1999.14993a8.41732,8.41732,0,0,1-2.099,1.09945,6.717,6.717,0,0,1-2.049.3998,5.50009,5.50009,0,0,1-4.048-1.54923,6.04769,6.04769,0,0,1-1.49925-4.34782,6.39663,6.39663,0,0,1,1.54923-4.49776,5.34826,5.34826,0,0,1,4.048-1.64917,6.94735,6.94735,0,0,1,4.098,1.44927l.1999.14993V75.05248l-.05-.05a7.08454,7.08454,0,0,0-1.999-.69965,9.85772,9.85772,0,0,0-2.39881-.29985m-12.84358.44977h-4.29785V92.7936h4.29785Zm-2.09895-7.79609a2.74315,2.74315,0,0,0-1.84907.69964,2.45365,2.45365,0,0,0-.74963,1.79911,2.26844,2.26844,0,0,0,.74963,1.74912,2.65274,2.65274,0,0,0,1.84907.69965,2.74317,2.74317,0,0,0,1.84908-.69965,2.26843,2.26843,0,0,0,.74962-1.74912,2.45366,2.45366,0,0,0-.74962-1.79911,2.65274,2.65274,0,0,0-1.84908-.69964m-10.7946,6.44677V92.79361h4.3978V67.2064h-6.097L89.31534,86.19691,81.81909,67.2064H75.47227V92.79361h4.14792V73.10346h.14993l7.946,19.69015h3.09845L98.6107,73.10346Z" fill="#505666"/><path d="M40.28985,78.95052H20V58.66067H40.28985Z" fill="#505666"/><path d="M62.67866,78.95052H42.3888V58.66067H62.67866Z" fill="#505666"/><path d="M40.28985,101.33933H20V81.04948H40.28985Z" fill="#505666"/><path d="M62.67866,101.33933H42.3888V81.04948H62.67866Z" fill="#505666"/></svg>