<svg xmlns="http://www.w3.org/2000/svg" viewBox="0 0 240 160"><title>paypal</title><path d="M171.86058,67.12549H161.303a1.46664,1.46664,0,0,0-1.44859,1.23839L155.585,95.43432a.88007.88007,0,0,0,.86924,1.01728h5.41712a1.02614,1.02614,0,0,0,1.014-.86687l1.21087-7.67422a1.46676,1.46676,0,0,1,1.449-1.23839h3.3408c6.95349,0,10.96663-3.36548,12.0157-10.03523.47211-2.91709.019-5.2093-1.347-6.814C178.05348,68.05832,175.3926,67.12549,171.86058,67.12549Zm1.21847,9.88671c-.577,3.78967-3.47081,3.78967-6.27071,3.78967H165.216l1.11693-7.07543a.88051.88051,0,0,1,.86924-.743h.73023c1.9055,0,3.70568,0,4.63329,1.08561A3.52311,3.52311,0,0,1,173.07905,77.0122Z" fill="#505666"/><path d="M96.5627,67.12549H86.00555a1.4675,1.4675,0,0,0-1.44906,1.23839L80.28713,95.43432a.88042.88042,0,0,0,.86972,1.01728h5.04086a1.46708,1.46708,0,0,0,1.44906-1.23791l1.152-7.30318a1.46663,1.46663,0,0,1,1.44858-1.23839h3.34081c6.954,0,10.9671-3.36548,12.01617-10.03523.47211-2.91709.019-5.2093-1.34657-6.814C102.75559,68.05832,100.09425,67.12549,96.5627,67.12549Zm1.21846,9.88671c-.577,3.78967-3.47128,3.78967-6.27023,3.78967H89.9181L91.035,73.72644a.88014.88014,0,0,1,.86924-.743h.73023c1.90551,0,3.70568,0,4.63328,1.08561A3.52478,3.52478,0,0,1,97.78116,77.0122Z" fill="#505666"/><path d="M128.117,76.89121h-5.05462a.88063.88063,0,0,0-.86972.743l-.22205,1.41347-.35349-.512c-1.0951-1.589-3.53486-2.12-5.97132-2.12a11.62489,11.62489,0,0,0-11.28453,10.16808,9.54352,9.54352,0,0,0,1.88179,7.76674,7.91168,7.91168,0,0,0,6.367,2.57025,9.67954,9.67954,0,0,0,6.99856-2.89242l-.22585,1.4054a.87972.87972,0,0,0,.86925,1.01776h4.55262a1.4666,1.4666,0,0,0,1.44858-1.23744l2.733-17.30567A.87962.87962,0,0,0,128.117,76.89121ZM121.0719,86.731a5.63649,5.63649,0,0,1-5.70608,4.82735,3.91585,3.91585,0,0,1-4.18633-4.91512,5.65751,5.65751,0,0,1,5.66528-4.86436,4.25854,4.25854,0,0,1,3.37022,1.37741A4.3537,4.3537,0,0,1,121.0719,86.731Z" fill="#505666"/><path d="M203.41485,76.89121h-5.05461a.87979.87979,0,0,0-.86925.743l-.22253,1.41347-.35348-.512c-1.0951-1.589-3.53487-2.12-5.97131-2.12a11.62371,11.62371,0,0,0-11.28406,10.16808,9.54352,9.54352,0,0,0,1.88178,7.76674,7.9117,7.9117,0,0,0,6.367,2.57025,9.67954,9.67954,0,0,0,6.99856-2.89242l-.22586,1.4054a.87972.87972,0,0,0,.86924,1.01776H200.103a1.46661,1.46661,0,0,0,1.44859-1.23744l2.733-17.30567A.88.88,0,0,0,203.41485,76.89121ZM196.37026,86.731a5.636,5.636,0,0,1-5.70561,4.82735,3.9159,3.9159,0,0,1-4.1868-4.91512,5.65738,5.65738,0,0,1,5.6648-4.86436,4.26024,4.26024,0,0,1,3.3707,1.37741A4.357,4.357,0,0,1,196.37026,86.731Z" fill="#505666"/><path d="M155.04173,76.89121h-5.0812a1.46883,1.46883,0,0,0-1.21372.6434l-7.009,10.32276-2.97071-9.91993a1.46777,1.46777,0,0,0-1.40493-1.0467h-4.99484a.88065.88065,0,0,0-.83318,1.16437l5.595,16.42266-5.26244,7.42465a.88025.88025,0,0,0,.71836,1.38927h5.076a1.46658,1.46658,0,0,0,1.20565-.63153l16.89808-24.38773A.88009.88009,0,0,0,155.04173,76.89121Z" fill="#505666"/><path d="M209.37383,67.869l-4.33342,27.56579a.88015.88015,0,0,0,.86925,1.01681h4.35809a1.46706,1.46706,0,0,0,1.449-1.23791l4.2722-27.07044a.87982.87982,0,0,0-.86924-1.01729h-4.87622A.87947.87947,0,0,0,209.37383,67.869Z" fill="#505666"/><path d="M59.57661,68.54371c.56842-3.62407-.0038-6.08946-1.96387-8.32331-2.15793-2.45875-6.05625-3.51209-11.044-3.51209H32.09052a2.07105,2.07105,0,0,0-2.04595,1.74893l-6.0292,38.2297a1.243,1.243,0,0,0,1.22748,1.43625h8.93823l-.61683,3.91208a1.08691,1.08691,0,0,0,1.07375,1.25642h7.53425A1.81188,1.81188,0,0,0,43.962,101.762l.074-.38338,1.41917-8.99991.09157-.49725a1.81273,1.81273,0,0,1,1.78973-1.5302h1.12689c7.29891,0,13.014-2.965,14.6837-11.54074.69795-3.58327.33688-6.57438-1.50837-8.67727a7.1797,7.1797,0,0,0-2.06208-1.58951h0" fill="#505666" opacity="0.68" style="isolation:isolate"/><path d="M59.57661,68.54371c.56842-3.62407-.0038-6.08946-1.96387-8.32331-2.15793-2.45875-6.05625-3.51209-11.044-3.51209H32.09052a2.07105,2.07105,0,0,0-2.04595,1.74893l-6.0292,38.2297a1.243,1.243,0,0,0,1.22748,1.43625h8.93823l2.24523-14.23768-.06975.44648a2.06417,2.06417,0,0,1,2.03884-1.74893h4.24848c8.34323,0,14.87633-3.38968,16.78469-13.19241.05694-.28943.10486-.5708.148-.84694" fill="#505666" opacity="0.7" style="isolation:isolate"/><path d="M38.83856,68.59163a1.812,1.812,0,0,1,1.79021-1.52972h11.349a23.66582,23.66582,0,0,1,3.74412.27283q.49109.079.95607.1822.464.1032.901.23059c.14566.04223.28848.08731.4294.13381a10.219,10.219,0,0,1,1.5691.66284c.56843-3.62407-.0038-6.08946-1.96387-8.3233-2.15887-2.45923-6.05719-3.51257-11.04491-3.51257H32.09052a2.07105,2.07105,0,0,0-2.04595,1.74893l-6.0292,38.2297a1.243,1.243,0,0,0,1.22748,1.43625h8.93823l2.24523-14.23768Z" fill="#505666"/></svg>