<svg xmlns="http://www.w3.org/2000/svg" viewBox="0 0 240 160"><title>vodafone</title><path d="M57.80936,58.60359a9.83182,9.83182,0,0,0-7.71664,9.4494,2.45442,2.45442,0,0,0,.0288.38584C57.33,70.19431,60.60235,74.5439,60.62259,80.56217A12.66829,12.66829,0,0,1,47.8611,93.20059C41.35655,93.222,34.58966,87.671,34.56,78.75684A20.092,20.092,0,0,1,41.786,63.821a23.64347,23.64347,0,0,1,14.32423-5.40664,6.04616,6.04616,0,0,1,1.68346.18217,23.024,23.024,0,1,0,.01568.00708Z" fill="#505666"/><polygon points="86.635 89.806 79.396 72.533 84.126 72.533 88.642 84.001 93.014 72.533 97.529 72.533 90.505 89.806 86.635 89.806" fill="#505666"/><path d="M114.499,81.09777a10.86071,10.86071,0,0,1-.51974,3.31515,9.12166,9.12166,0,0,1-1.541,2.92114,7.634,7.634,0,0,1-2.57969,2.07823,8.79033,8.79033,0,0,1-7.27542,0,7.6391,7.6391,0,0,1-2.58007-2.07823,9.09738,9.09738,0,0,1-1.54059-2.92114,10.82607,10.82607,0,0,1-.51974-3.31515,10.65927,10.65927,0,0,1,.51974-3.29647,8.92833,8.92833,0,0,1,1.54059-2.88531,7.54683,7.54683,0,0,1,2.58007-2.04244,8.11684,8.11684,0,0,1,3.63752-.77048,8.00353,8.00353,0,0,1,3.6196.77048,7.78917,7.78917,0,0,1,2.5805,2.04244,8.77342,8.77342,0,0,1,1.55846,2.88531,10.69321,10.69321,0,0,1,.51974,3.29647m-4.37174-.01754a8.1921,8.1921,0,0,0-.25113-2.04942,4.98526,4.98526,0,0,0-.75257-1.67217,3.8635,3.8635,0,0,0-1.2186-1.11466,3.63114,3.63114,0,0,0-3.36852,0,3.845,3.845,0,0,0-1.21818,1.11466,4.96884,4.96884,0,0,0-.75261,1.67217,8.566,8.566,0,0,0,0,4.11755,5.45776,5.45776,0,0,0,.73431,1.67179,3.55128,3.55128,0,0,0,1.21861,1.13255,3.41108,3.41108,0,0,0,1.70213.41348,3.31238,3.31238,0,0,0,1.68426-.41348,3.78913,3.78913,0,0,0,1.2186-1.13255,5.21821,5.21821,0,0,0,.75257-1.67179,8.132,8.132,0,0,0,.25113-2.06813" fill="#505666"/><path d="M128.20621,89.80651l-.18065-1.32566a5.56155,5.56155,0,0,1-1.60755,1.19991,5.051,5.051,0,0,1-2.35779.51976,6.37243,6.37243,0,0,1-3.14382-.753,7.08646,7.08646,0,0,1-2.28656-2.0066,9.13633,9.13633,0,0,1-1.41089-2.90246,12.19646,12.19646,0,0,1-.482-3.44051,11.06074,11.06074,0,0,1,.49992-3.29685,8.70485,8.70485,0,0,1,1.518-2.88533,7.57217,7.57217,0,0,1,2.55478-2.04241,7.95466,7.95466,0,0,1,3.60753-.77049,9.7519,9.7519,0,0,1,2.929.49717V65.90361h4.44417v23.9029Zm-.3601-13.47316a6.581,6.581,0,0,0-2.38816-.50377,4.16011,4.16011,0,0,0-1.961.43253,3.87921,3.87921,0,0,0-1.35449,1.168,5.33678,5.33678,0,0,0-.802,1.65465,6.70352,6.70352,0,0,0-.26747,1.88748,9.03485,9.03485,0,0,0,.23207,2.06813,5.38658,5.38658,0,0,0,.71283,1.72627,3.82715,3.82715,0,0,0,1.21238,1.18629,3.23516,3.23516,0,0,0,1.72865.4489,3.589,3.589,0,0,0,1.67528-.4489,2.91672,2.91672,0,0,0,1.212-1.06129Z" fill="#505666"/><path d="M145.157,89.79009l-.17789-1.28984a4.91926,4.91926,0,0,1-1.83416,1.24856,6.46281,6.46281,0,0,1-2.44538.45162,6.15759,6.15759,0,0,1-2.1405-.37648,5.66567,5.66567,0,0,1-1.81587-1.07493,5.2587,5.2587,0,0,1-1.76211-4.03151,4.92339,4.92339,0,0,1,.5034-2.27526,4.99766,4.99766,0,0,1,1.36655-1.6667,7.573,7.573,0,0,1,1.97858-1.11077,12.49043,12.49043,0,0,1,2.33755-.64511,16.43018,16.43018,0,0,1,1.88862-.26905q1.02549-.08819,1.70879-.16118v-.25072a2.51268,2.51268,0,0,0-.739-2.0432,3.10612,3.10612,0,0,0-2.03462-.6093,5.67314,5.67314,0,0,0-1.4405.17986,6.34245,6.34245,0,0,0-1.22484.44774,9.51324,9.51324,0,0,0-.95464.53765,6.41623,6.41623,0,0,0-.66655.484l-1.46893-3.11816a6.628,6.628,0,0,1,.87795-.6093,10.15673,10.15673,0,0,1,1.43308-.69884,12.039,12.039,0,0,1,1.89955-.57309,10.582,10.582,0,0,1,2.27562-.23283,8.59264,8.59264,0,0,1,2.61634.3761,5.29212,5.29212,0,0,1,2.04242,1.1816A5.48731,5.48731,0,0,1,148.724,75.7014a8.20012,8.20012,0,0,1,.484,2.98889v11.0998Zm-.35659-8.0829q-.72184.03621-1.4787.12578-.75744.08933-1.44322.2328a3.31262,3.31262,0,0,0-2.00235.98578,2.38627,2.38627,0,0,0-.55909,1.52267,1.69922,1.69922,0,0,0,.63114,1.3802,2.73943,2.73943,0,0,0,1.78583.51936,4.10745,4.10745,0,0,0,1.67685-.35818,4.94115,4.94115,0,0,0,1.38954-.89624Z" fill="#505666"/><path d="M162.93757,69.84536a6.81679,6.81679,0,0,0-.84215-.30445,5.71553,5.71553,0,0,0-1.66673-.197,2.26394,2.26394,0,0,0-1.55846.55557,2.30589,2.30589,0,0,0-.62724,1.80921v.82421H161.97V76.1167h-3.69122V89.80632H153.835V76.1167h-2.29359V72.53291H153.835v-.93166a8.28247,8.28247,0,0,1,.42982-2.84872,4.93507,4.93507,0,0,1,1.20107-1.89955,4.7125,4.7125,0,0,1,1.80959-1.07493,7.19743,7.19743,0,0,1,2.25732-.34107,9.85515,9.85515,0,0,1,2.67.30485,8.34174,8.34174,0,0,1,1.23614.41269Z" fill="#505666"/><path d="M179.42222,81.09777a10.86071,10.86071,0,0,1-.51974,3.31515,9.12149,9.12149,0,0,1-1.541,2.92114,7.634,7.634,0,0,1-2.57969,2.07823,8.79031,8.79031,0,0,1-7.27541,0,7.634,7.634,0,0,1-2.57969-2.07823,9.09827,9.09827,0,0,1-1.541-2.92114,10.82637,10.82637,0,0,1-.51974-3.31515,10.65956,10.65956,0,0,1,.51974-3.29647,8.92923,8.92923,0,0,1,1.541-2.88531,7.5418,7.5418,0,0,1,2.57969-2.04244,8.11683,8.11683,0,0,1,3.63751-.77048,8.00347,8.00347,0,0,1,3.6196.77048A7.7891,7.7891,0,0,1,177.344,74.916a8.77361,8.77361,0,0,1,1.55846,2.88531,10.69321,10.69321,0,0,1,.51974,3.29647m-4.37175-.01754a8.1921,8.1921,0,0,0-.25112-2.04942,4.98565,4.98565,0,0,0-.75257-1.67217,3.86372,3.86372,0,0,0-1.2186-1.11466,3.63116,3.63116,0,0,0-3.36853,0,3.84514,3.84514,0,0,0-1.21818,1.11466,4.969,4.969,0,0,0-.75261,1.67217,8.566,8.566,0,0,0,0,4.11755,5.458,5.458,0,0,0,.73432,1.67179,3.55125,3.55125,0,0,0,1.2186,1.13255,3.41212,3.41212,0,0,0,1.70213.41348,3.31242,3.31242,0,0,0,1.68427-.41348,3.78934,3.78934,0,0,0,1.2186-1.13255,5.21864,5.21864,0,0,0,.75257-1.67179,8.13205,8.13205,0,0,0,.25112-2.06813" fill="#505666"/><path d="M193.21582,89.80637V79.95126a4.91812,4.91812,0,0,0-.82462-3.04651,2.7275,2.7275,0,0,0-2.29316-1.07494,3.60357,3.60357,0,0,0-1.91746.53769,8.16783,8.16783,0,0,0-1.52306,1.18317v12.2557h-4.44379V72.533h4.04981l.2149,1.36226a7.6957,7.6957,0,0,1,2.3473-1.32644,7.80943,7.80943,0,0,1,2.63419-.46564,7.38574,7.38574,0,0,1,2.50846.41191,4.89034,4.89034,0,0,1,1.97079,1.30814,6.05313,6.05313,0,0,1,1.27193,2.32938,11.6061,11.6061,0,0,1,.44812,3.4405V89.80637Z" fill="#505666"/><path d="M204.783,82.28069a4.1533,4.1533,0,0,0,1.36732,3.15358,4.951,4.951,0,0,0,3.16562.96748,8.41241,8.41241,0,0,0,1.69087-.16159,7.77755,7.77755,0,0,0,1.40277-.4115,8.57489,8.57489,0,0,0,1.04377-.50184,3.2456,3.2456,0,0,0,.64748-.466l1.18276,3.62a8.95,8.95,0,0,1-.80632.48355,8.18912,8.18912,0,0,1-1.37975.57311,14.52512,14.52512,0,0,1-1.93534.466,14.04478,14.04478,0,0,1-2.43684.197,9.56091,9.56091,0,0,1-3.2077-.53768,7.13933,7.13933,0,0,1-2.66921-1.66672,8.16368,8.16368,0,0,1-1.82794-2.8129,10.68475,10.68475,0,0,1-.68095-4.01362,11.05013,11.05013,0,0,1,.62681-3.86994,8.1683,8.1683,0,0,1,1.7201-2.83119,7.4997,7.4997,0,0,1,2.54466-1.75627,7.93512,7.93512,0,0,1,3.1002-.6093,8.42255,8.42255,0,0,1,3.04616.53766,6.2481,6.2481,0,0,1,2.41849,1.66634,8.05056,8.05056,0,0,1,1.613,2.92074A13.67658,13.67658,0,0,1,216,81.4919v.78879Zm6.70155-3.1894a4.59561,4.59561,0,0,0-.37808-1.55887,3.33652,3.33652,0,0,0-.75647-1.07534,3.04092,3.04092,0,0,0-.97369-.6093,2.99944,2.99944,0,0,0-1.06249-.19661,3.41528,3.41528,0,0,0-2.19778.85964,3.67369,3.67369,0,0,0-1.22521,2.58048Z" fill="#505666"/></svg>